<svg width="970px" height="980px" xmlns="http://www.w3.org/2000/svg" fill="#24292F" rx="15" transform="rotate(90)">
    <rect width="500" height="970" fill="#24292F" rx="15"/>
    <text x="15" y="30" fill="#2dba4e" class="ascii">
        <tspan x="175" y="30">             ╍╍╍╍╍╍ ▉      </tspan>
        <tspan x="190" y="50">              ╍╍╍╍ ▉       </tspan>
        <tspan x="205" y="70">               ╍╍ ▉        </tspan>
        <tspan x="220" y="90">               ╍            </tspan>
        <tspan x="225" y="110">             ╍ ▉          </tspan>
        <tspan x="215" y="130">            ╍╍╍ ▉         </tspan>
        <tspan x="200" y="150">           ╍╍╍╍╍ ▉        </tspan>
        <tspan x="180" y="170">         ╍╍╍╍╍╍╍ ▉        </tspan>
        <tspan x="165" y="190">        ╍╍╍╍╍╍╍╍╍ ▉       </tspan>
        <tspan x="155" y="210">       ╍╍╍╍╍╍╍╍╍ ▉        </tspan>
        <tspan x="150" y="230">       ╍╍╍╍╍╍╍╍ ▉         </tspan>
        <tspan x="155" y="250">       ╍╍╍╍╍╍ ▉           </tspan>
        <tspan x="170" y="270">        ╍╍╍╍ ▉            </tspan>
        <tspan x="185" y="290">         ╍╍ ▉             </tspan>
        <tspan x="200" y="310">          ▉               </tspan>
        <tspan x="185" y="330">         ▉ ╍              </tspan>
        <tspan x="170" y="350">        ▉ ╍╍╍             </tspan>
        <tspan x="155" y="370">       ▉ ╍╍╍╍╍            </tspan>
        <tspan x="145" y="390">      ▉ ╍╍╍╍╍╍╍           </tspan>
        <tspan x="140" y="410">     ▉ ╍╍╍╍╍╍╍╍╍          </tspan>
        <tspan x="145" y="430">      ▉ ╍╍╍╍╍╍╍╍╍         </tspan>
        <tspan x="155" y="450">        ▉ ╍╍╍╍╍╍╍╍        </tspan>
        <tspan x="170" y="470">          ▉ ╍╍╍╍╍╍        </tspan>
        <tspan x="185" y="490">            ▉ ╍╍╍╍        </tspan>
        <tspan x="200" y="510">              ▉ ╍╍        </tspan>
        <tspan x="227" y="530">              ▉           </tspan>
        <tspan x="225" y="550">             ╍ ▉          </tspan>
        <tspan x="215" y="570">            ╍╍╍ ▉         </tspan>
        <tspan x="200" y="590">           ╍╍╍╍╍ ▉        </tspan>
        <tspan x="180" y="610">         ╍╍╍╍╍╍╍ ▉        </tspan>
        <tspan x="165" y="630">        ╍╍╍╍╍╍╍╍╍ ▉       </tspan>
        <tspan x="155" y="650">       ╍╍╍╍╍╍╍╍╍ ▉        </tspan>
        <tspan x="150" y="670">       ╍╍╍╍╍╍╍╍ ▉         </tspan>
        <tspan x="155" y="690">       ╍╍╍╍╍╍ ▉           </tspan>
        <tspan x="170" y="710">        ╍╍╍╍ ▉            </tspan>
        <tspan x="185" y="730">         ╍╍ ▉             </tspan>
        <tspan x="200" y="750">          ▉               </tspan>
        <tspan x="185" y="770">         ▉ ╍              </tspan>
        <tspan x="170" y="790">        ▉ ╍╍╍             </tspan>
        <tspan x="155" y="810">       ▉ ╍╍╍╍╍            </tspan>
        <tspan x="145" y="830">      ▉ ╍╍╍╍╍╍╍           </tspan>
        <tspan x="140" y="850">     ▉ ╍╍╍╍╍╍╍╍╍          </tspan>
        <tspan x="145" y="870">      ▉ ╍╍╍╍╍╍╍╍╍         </tspan>
        <tspan x="155" y="890">        ▉ ╍╍╍╍╍╍╍╍        </tspan>
        <tspan x="170" y="910">          ▉ ╍╍╍╍╍╍        </tspan>
        <tspan x="185" y="930">            ▉ ╍╍╍╍        </tspan>
        <tspan x="200" y="950">              ▉ ╍╍        </tspan>
</text>
</svg>